<svg width="31" height="43" viewBox="0 0 31 43" fill="none" xmlns="http://www.w3.org/2000/svg">
<path d="M15.6513 42.9123C24.0648 42.9123 30.9129 36.3099 30.9129 28.1982C30.9129 20.0865 24.0648 13.4841 15.6513 13.4841C7.23558 13.4841 0.389648 20.0865 0.389648 28.1982C0.389648 36.3099 7.23558 42.9123 15.6513 42.9123ZM15.6513 17.6881C21.6622 17.6881 26.5524 22.4029 26.5524 28.1982C26.5524 33.9934 21.6622 38.7083 15.6513 38.7083C9.64038 38.7083 4.75011 33.9934 4.75011 28.1982C4.75011 22.4029 9.64038 17.6881 15.6513 17.6881ZM13.471 0.871948H4.75011V12.4709C7.35915 10.7876 10.3506 9.73564 13.471 9.40404V0.871948ZM26.5524 0.871948H17.8315V9.40404C20.9519 9.73564 23.9434 10.7876 26.5524 12.4709V0.871948Z" fill="white"/>
</svg>
