<svg width="53" height="52" viewBox="0 0 53 52" fill="none" xmlns="http://www.w3.org/2000/svg">
<path d="M22.2921 1.96913C23.0124 1.34517 23.9465 1 24.9149 1C25.8832 1 26.8174 1.34517 27.5377 1.96913L41.9272 14.4349C42.3364 14.7897 42.6635 15.2234 42.8876 15.7079C43.1116 16.1924 43.2274 16.717 43.2275 17.2474V20.1608C42.3913 19.7483 41.515 19.4163 40.6112 19.1695V17.2474C40.6108 17.0708 40.572 16.8963 40.4972 16.7351C40.4223 16.5739 40.3133 16.4296 40.1769 16.3116L25.7874 3.84581C25.5473 3.63806 25.2361 3.52315 24.9136 3.52315C24.591 3.52315 24.2798 3.63806 24.0397 3.84581L9.65019 16.3116C9.51387 16.4296 9.40478 16.5739 9.32996 16.7351C9.25515 16.8963 9.21628 17.0708 9.21589 17.2474V35.0431C9.21589 35.3776 9.35371 35.6984 9.59903 35.9349C9.84436 36.1715 10.1771 36.3043 10.524 36.3043H22.8389C23.0952 37.1821 23.4406 38.0271 23.8644 38.8268H10.524C9.48321 38.8268 8.48502 38.4281 7.74905 37.7186C7.01307 37.009 6.59961 36.0466 6.59961 35.0431V17.2474C6.59961 16.1754 7.07054 15.1538 7.90252 14.4349L22.2921 1.96913ZM48.4601 32.5207C48.4601 35.5311 47.2197 38.4183 45.0118 40.547C42.8039 42.6757 39.8093 43.8716 36.6868 43.8716C33.5644 43.8716 30.5698 42.6757 28.3619 40.547C26.154 38.4183 24.9136 35.5311 24.9136 32.5207C24.9136 29.5103 26.154 26.6231 28.3619 24.4944C30.5698 22.3657 33.5644 21.1698 36.6868 21.1698C39.8093 21.1698 42.8039 22.3657 45.0118 24.4944C47.2197 26.6231 48.4601 29.5103 48.4601 32.5207ZM37.995 27.4759C37.995 27.1414 37.8571 26.8206 37.6118 26.584C37.3665 26.3475 37.0338 26.2146 36.6868 26.2146C36.3399 26.2146 36.0071 26.3475 35.7618 26.584C35.5165 26.8206 35.3787 27.1414 35.3787 27.4759V31.2595H31.4543C31.1073 31.2595 30.7746 31.3924 30.5293 31.6289C30.2839 31.8654 30.1461 32.1862 30.1461 32.5207C30.1461 32.8552 30.2839 33.176 30.5293 33.4125C30.7746 33.649 31.1073 33.7819 31.4543 33.7819H35.3787V37.5655C35.3787 37.9 35.5165 38.2208 35.7618 38.4574C36.0071 38.6939 36.3399 38.8268 36.6868 38.8268C37.0338 38.8268 37.3665 38.6939 37.6118 38.4574C37.8571 38.2208 37.995 37.9 37.995 37.5655V33.7819H41.9194C42.2663 33.7819 42.599 33.649 42.8444 33.4125C43.0897 33.176 43.2275 32.8552 43.2275 32.5207C43.2275 32.1862 43.0897 31.8654 42.8444 31.6289C42.599 31.3924 42.2663 31.2595 41.9194 31.2595H37.995V27.4759Z" fill="white"/>
</svg>
