<svg width="74" height="47" viewBox="0 0 74 47" fill="none" xmlns="http://www.w3.org/2000/svg">
<path d="M68.9433 0H6.0039C3.22306 0 0.96875 2.25431 0.96875 5.03515V41.54C0.96875 44.3208 3.22306 46.5752 6.0039 46.5752H68.9433C71.7241 46.5752 73.9785 44.3208 73.9785 41.54V5.03515C73.9785 2.25431 71.7241 0 68.9433 0Z" fill="#4796E7"/>
<path fill-rule="evenodd" clip-rule="evenodd" d="M6.00391 8.81362C6.00391 6.72683 7.69273 5.03516 9.77669 5.03516H21.1094V11.327C21.1094 13.4138 19.4205 15.1055 17.3366 15.1055H6.00391V8.81362Z" fill="#FFAF40"/>
<path fill-rule="evenodd" clip-rule="evenodd" d="M6.00391 27.6919H18.5918V31.4683H6.00391V27.6919Z" fill="#D8D8D8"/>
<path fill-rule="evenodd" clip-rule="evenodd" d="M21.1094 27.6919H33.6973V31.4683H21.1094V27.6919Z" fill="#D8D8D8"/>
<path fill-rule="evenodd" clip-rule="evenodd" d="M36.2148 27.6919H48.8027V31.4683H36.2148V27.6919Z" fill="#D8D8D8"/>
<path fill-rule="evenodd" clip-rule="evenodd" d="M51.3203 27.6919H63.9082V31.4683H51.3203V27.6919Z" fill="#D8D8D8"/>
</svg>
