<svg width="60" height="60" viewBox="0 0 60 60" fill="none" xmlns="http://www.w3.org/2000/svg">
<path d="M52.5 14.2474H5.625V12.341L46.875 8.98582V12.341H52.5V6.62194C52.5 2.42795 49.1587 -0.515469 45.0788 0.0755022L7.425 5.54294C3.34125 6.13772 0 10.0534 0 14.2474V52.3746C0 54.397 0.790176 56.3365 2.1967 57.7666C3.60322 59.1966 5.51088 60 7.5 60H52.5C54.4891 60 56.3968 59.1966 57.8033 57.7666C59.2098 56.3365 60 54.397 60 52.3746V21.8728C60 19.8504 59.2098 17.9109 57.8033 16.4808C56.3968 15.0508 54.4891 14.2474 52.5 14.2474ZM46.875 40.9593C46.1361 40.959 45.4044 40.8108 44.7218 40.5231C44.0392 40.2353 43.4191 39.8137 42.8967 39.2823C42.3744 38.7509 41.9602 38.1201 41.6776 37.4259C41.3951 36.7317 41.2498 35.9877 41.25 35.2364C41.2502 34.4851 41.396 33.7412 41.679 33.0472C41.962 32.3532 42.3767 31.7227 42.8994 31.1916C43.4221 30.6605 44.0425 30.2393 44.7253 29.9521C45.4081 29.6648 46.1398 29.5171 46.8787 29.5173C48.3711 29.5178 49.8021 30.121 50.857 31.1943C51.9119 32.2675 52.5042 33.7229 52.5037 35.2402C52.5033 36.7575 51.9099 38.2125 50.8544 39.285C49.7988 40.3575 48.3673 40.9598 46.875 40.9593Z" fill="white"/>
</svg>
