<svg width="60" height="60" viewBox="0 0 60 60" fill="none" xmlns="http://www.w3.org/2000/svg">
<path d="M32.9314 0V0.0600901V6.0691C46.134 7.69154 55.4872 19.6795 53.8632 32.8693C52.4797 43.8057 43.8785 52.4887 32.9314 53.7807V59.7897C49.4723 58.1372 61.502 43.4752 59.848 26.9504C58.4946 12.679 47.1566 1.41212 32.9314 0ZM26.9165 0.0901351C21.052 0.660991 15.4582 2.91437 10.8869 6.70005L15.1875 11.1467C18.5559 8.44266 22.6159 6.70005 26.9165 6.09915V0.0901351ZM6.64643 10.9364C2.85706 15.5033 0.601487 21.0616 0 26.9504H6.01487C6.58628 22.684 8.27045 18.6279 10.9471 15.2328L6.64643 10.9364ZM0.0300743 32.9594C0.631561 38.8483 2.94729 44.4066 6.67651 48.9735L10.9471 44.677C8.30052 41.2819 6.58628 37.2258 6.04494 32.9594H0.0300743ZM15.1875 49.0936L10.8869 53.2098C15.4281 56.9955 21.022 59.3691 26.9165 60V53.991C22.646 53.4502 18.5859 51.7376 15.1875 49.0936ZM44.4198 39.5393L32.0593 27.1908C33.2923 24.0661 32.6006 20.4006 30.0142 17.8468C27.3075 15.1127 23.2475 14.5719 19.9694 16.0741L25.8038 21.9029L21.7438 25.989L15.759 20.1302C14.1349 23.4051 14.8868 27.4612 17.5333 30.1953C20.1197 32.7792 23.7888 33.4402 26.9165 32.2384L39.2771 44.5568C39.8184 45.1277 40.6304 45.1277 41.1718 44.5568L44.2995 41.4622C44.9611 40.9214 44.9611 39.9599 44.4198 39.5393Z" fill="white"/>
</svg>
