<svg width="25" height="25" viewBox="0 0 25 25" fill="none" xmlns="http://www.w3.org/2000/svg">
<path d="M11.7318 19.9956C11.5151 19.9956 11.2983 19.9143 11.1358 19.7788C10.8648 19.5621 10.7293 19.2099 10.8106 18.8576L12.1382 12.0841L11.4067 12.4905C10.9461 12.7343 10.3771 12.5989 10.1062 12.1382C9.86233 11.6776 9.9978 11.1087 10.4584 10.8377L12.9782 9.40172C13.3033 9.21206 13.7097 9.23916 14.0078 9.45591C14.3058 9.67267 14.4413 10.052 14.3871 10.4042L13.0053 17.4487L14.1432 16.961C14.6309 16.7443 15.1728 16.961 15.3896 17.4487C15.6063 17.9364 15.3896 18.4783 14.9019 18.6951L12.1112 19.9143C12.0028 19.9685 11.8673 19.9956 11.7318 19.9956ZM14.4142 7.04452C14.658 6.80067 14.8206 6.44844 14.8206 6.09622C14.8206 5.74399 14.6851 5.39177 14.4142 5.14792C14.1703 4.90407 13.8181 4.7415 13.4659 4.7415C13.1136 4.7415 12.7614 4.87697 12.5176 5.14792C12.2737 5.39177 12.1112 5.74399 12.1112 6.09622C12.1112 6.44844 12.2466 6.80067 12.5176 7.04452C12.7614 7.28837 13.1136 7.45093 13.4659 7.45093C13.8181 7.45093 14.1703 7.31546 14.4142 7.04452ZM24.9268 12.4634C24.9268 5.58143 19.3453 0 12.4634 0C5.58143 0 0 5.58143 0 12.4634C0 19.3453 5.58143 24.9268 12.4634 24.9268C19.3453 24.9268 24.9268 19.3453 24.9268 12.4634ZM22.7592 12.4634C22.7592 18.1532 18.1532 22.7592 12.4634 22.7592C6.77358 22.7592 2.16754 18.1532 2.16754 12.4634C2.16754 6.77358 6.77358 2.16754 12.4634 2.16754C18.1532 2.16754 22.7592 6.77358 22.7592 12.4634Z" fill="#CA2790"/>
</svg>
