<svg width="54" height="51" viewBox="0 0 54 51" fill="none" xmlns="http://www.w3.org/2000/svg">
<path d="M43.3142 28.3773C43.3142 31.4953 42.3552 34.5433 40.5584 37.1359C38.7617 39.7285 36.2079 41.7491 33.22 42.9424C30.2321 44.1356 26.9443 44.4478 23.7724 43.8395C20.6004 43.2312 17.6868 41.7297 15.4 39.5249C13.1132 37.3201 11.5558 34.511 10.9249 31.4529C10.2939 28.3948 10.6178 25.2249 11.8554 22.3442C13.093 19.4635 15.1889 17.0013 17.8779 15.269C20.5669 13.5367 23.7284 12.6121 26.9624 12.6121H37.0711L31.2106 18.2639L33.5031 20.4947L43.3142 11.0356L33.5031 1.57654L31.2106 3.80573L37.076 9.45911H26.9624C23.0816 9.45911 19.2878 10.5686 16.061 12.6474C12.8341 14.7261 10.3191 17.6808 8.83398 21.1376C7.34883 24.5944 6.96025 28.3983 7.71737 32.068C8.4745 35.7378 10.3433 39.1087 13.0875 41.7544C15.8317 44.4002 19.328 46.202 23.1344 46.9319C26.9407 47.6619 30.886 47.2872 34.4715 45.8554C38.057 44.4235 41.1215 41.9987 43.2776 38.8876C45.4337 35.7766 46.5845 32.1189 46.5845 28.3773H43.3142Z" fill="white"/>
<path d="M46.7308 21.9845C46.2427 25.6842 44.4025 29.1678 41.8204 29.9462C40.5611 30.3264 39.2547 30.0946 38.0874 29.2838C36.92 28.473 35.9511 27.1246 35.3187 25.4305C34.6863 23.7364 34.4225 21.783 34.565 19.8485C34.7076 17.914 35.2491 16.097 36.1125 14.6561C37.8833 11.6993 40.8735 10.8854 43.3141 12.3653" stroke="white" stroke-width="1.875" stroke-linecap="round" stroke-linejoin="round"/>
<path d="M38.4326 20.5047L40.8732 24.2044L46.7305 14.5852" stroke="white" stroke-width="1.875" stroke-linecap="round" stroke-linejoin="round"/>
</svg>
