<svg width="42" height="40" viewBox="0 0 42 40" fill="none" xmlns="http://www.w3.org/2000/svg">
<path d="M41.37 37.117L27.9226 24.152C30.0093 21.551 31.1381 18.3709 31.1381 15.0261C31.1381 11.0223 29.5174 7.26805 26.5866 4.43742C23.6558 1.60679 19.7516 0.0491943 15.604 0.0491943C11.4564 0.0491943 7.55211 1.61178 4.62133 4.43742C1.68538 7.26306 0.0698242 11.0223 0.0698242 15.0261C0.0698242 19.0249 1.69055 22.7891 4.62133 25.6147C7.55211 28.4454 11.4512 30.0029 15.604 30.0029C19.0733 30.0029 22.3665 28.9146 25.0643 26.9077L38.5117 39.8677C38.5511 39.9058 38.5979 39.9359 38.6495 39.9565C38.701 39.9771 38.7562 39.9877 38.812 39.9877C38.8678 39.9877 38.923 39.9771 38.9746 39.9565C39.0261 39.9359 39.0729 39.9058 39.1123 39.8677L41.37 37.6961C41.4094 37.6581 41.4407 37.6129 41.4621 37.5632C41.4834 37.5135 41.4944 37.4603 41.4944 37.4065C41.4944 37.3527 41.4834 37.2995 41.4621 37.2498C41.4407 37.2001 41.4094 37.155 41.37 37.117ZM23.806 22.9339C21.6105 25.0456 18.7005 26.2088 15.604 26.2088C12.5075 26.2088 9.59744 25.0456 7.40195 22.9339C5.21163 20.8171 4.00514 18.0115 4.00514 15.0261C4.00514 12.0407 5.21163 9.23002 7.40195 7.11828C9.59744 5.00654 12.5075 3.84334 15.604 3.84334C18.7005 3.84334 21.6157 5.00155 23.806 7.11828C25.9963 9.23501 27.2028 12.0407 27.2028 15.0261C27.2028 18.0115 25.9963 20.8221 23.806 22.9339Z" fill="white"/>
</svg>
