<svg width="43" height="51" viewBox="0 0 43 51" fill="none" xmlns="http://www.w3.org/2000/svg">
<path d="M36.5385 3.81842C34.1937 1.14581 29.955 0 24.5328 0H8.79545C7.68606 0 6.74337 0.806827 6.56967 1.90081L0.0170106 43.4594C-0.113258 44.2788 0.521277 45.0212 1.35192 45.0212H11.0675L13.5075 29.5444L13.4319 30.0291C13.6056 28.9351 14.5413 28.1283 15.6493 28.1283H20.2661C29.3359 28.1283 36.4377 24.4443 38.5122 13.7875C38.5738 13.4723 38.627 13.1656 38.6732 12.8658C38.4113 12.7271 38.4113 12.7271 38.6732 12.8658C39.291 8.92692 38.669 6.2459 36.5385 3.81842Z" fill="#27346A"/>
<path d="M17.2251 11.4469C17.4842 11.3236 17.7728 11.255 18.0754 11.255H30.4131C31.8741 11.255 33.237 11.3502 34.4822 11.5505C34.8394 11.6079 35.1854 11.6738 35.5216 11.7494C35.8578 11.8237 36.1841 11.9077 36.5007 12.0001C36.659 12.0464 36.8145 12.094 36.9671 12.1444C37.5793 12.3489 38.1494 12.5871 38.6732 12.8658C39.291 8.92552 38.669 6.2459 36.5385 3.81842C34.1923 1.14581 29.955 0 24.5328 0H8.79405C7.68607 0 6.74337 0.806827 6.56967 1.9008L0.0170116 43.458C-0.113257 44.2788 0.521278 45.0198 1.35052 45.0198H11.0675L16.1297 12.9176C16.2334 12.2593 16.6564 11.72 17.2251 11.4469Z" fill="#27346A"/>
<path d="M38.5113 13.7874C36.4368 24.4428 29.335 28.1282 20.2652 28.1282H15.647C14.539 28.1282 13.6033 28.935 13.431 30.029L10.3956 49.2724C10.2822 49.9895 10.8369 50.6395 11.5624 50.6395H19.7526C20.7219 50.6395 21.5469 49.9335 21.6982 48.9768L21.778 48.5594L23.3217 38.7766L23.4211 38.2359C23.5724 37.2792 24.3974 36.5733 25.3667 36.5733H26.5924C34.5262 36.5733 40.7385 33.3502 42.5538 24.0282C43.3116 20.1328 42.9194 16.8802 40.915 14.5956C40.307 13.9037 39.552 13.3322 38.6724 12.8657C38.6248 13.1669 38.5729 13.4722 38.5113 13.7874Z" fill="#2790C3"/>
<path d="M36.5024 11.9996C36.1858 11.9071 35.8594 11.8231 35.5233 11.7489C35.1871 11.6746 34.8397 11.6088 34.4839 11.5514C33.2373 11.3496 31.8757 11.2544 30.4134 11.2544H18.077C17.7731 11.2544 17.4845 11.323 17.2268 11.4477C16.6567 11.7208 16.2351 12.2587 16.1314 12.9185L13.5092 29.5439L13.4336 30.0285C13.6059 28.9345 14.5416 28.1277 15.6496 28.1277H20.2678C29.3376 28.1277 36.4394 24.4438 38.5139 13.7869C38.5755 13.4718 38.6273 13.1664 38.6749 12.8652C38.1497 12.5879 37.581 12.3484 36.9688 12.1453C36.8162 12.0948 36.6607 12.0458 36.5024 11.9996Z" fill="#1F264F"/>
</svg>
