<svg width="60" height="60" viewBox="0 0 60 60" fill="none" xmlns="http://www.w3.org/2000/svg">
<path d="M18.75 6.67302C17.7554 6.67302 16.8016 7.02411 16.0984 7.64906C15.3951 8.27401 15 9.12163 15 10.0054C15 10.8893 15.3951 11.7369 16.0984 12.3618C16.8016 12.9868 17.7554 13.3379 18.75 13.3379C19.7446 13.3379 20.6984 12.9868 21.4016 12.3618C22.1049 11.7369 22.5 10.8893 22.5 10.0054C22.5 9.12163 22.1049 8.27401 21.4016 7.64906C20.6984 7.02411 19.7446 6.67302 18.75 6.67302ZM8.1375 6.67302C8.91226 4.72177 10.349 3.03212 12.2497 1.83697C14.1505 0.641811 16.4216 0 18.75 0C21.0784 0 23.3495 0.641811 25.2503 1.83697C27.151 3.03212 28.5877 4.72177 29.3625 6.67302H56.25C57.2446 6.67302 58.1984 7.02411 58.9017 7.64906C59.6049 8.27401 60 9.12163 60 10.0054C60 10.8893 59.6049 11.7369 58.9017 12.3618C58.1984 12.9868 57.2446 13.3379 56.25 13.3379H29.3625C28.5877 15.2891 27.151 16.9788 25.2503 18.1739C23.3495 19.3691 21.0784 20.0109 18.75 20.0109C16.4216 20.0109 14.1505 19.3691 12.2497 18.1739C10.349 16.9788 8.91226 15.2891 8.1375 13.3379H3.75C2.75544 13.3379 1.80161 12.9868 1.09835 12.3618C0.395089 11.7369 0 10.8893 0 10.0054C0 9.12163 0.395089 8.27401 1.09835 7.64906C1.80161 7.02411 2.75544 6.67302 3.75 6.67302H8.1375ZM41.25 26.6676C40.2554 26.6676 39.3016 27.0187 38.5984 27.6436C37.8951 28.2686 37.5 29.1162 37.5 30C37.5 30.8838 37.8951 31.7314 38.5984 32.3564C39.3016 32.9813 40.2554 33.3324 41.25 33.3324C42.2446 33.3324 43.1984 32.9813 43.9016 32.3564C44.6049 31.7314 45 30.8838 45 30C45 29.1162 44.6049 28.2686 43.9016 27.6436C43.1984 27.0187 42.2446 26.6676 41.25 26.6676ZM30.6375 26.6676C31.4123 24.7163 32.849 23.0267 34.7497 21.8315C36.6505 20.6364 38.9216 19.9946 41.25 19.9946C43.5784 19.9946 45.8495 20.6364 47.7503 21.8315C49.651 23.0267 51.0877 24.7163 51.8625 26.6676H56.25C57.2446 26.6676 58.1984 27.0187 58.9017 27.6436C59.6049 28.2686 60 29.1162 60 30C60 30.8838 59.6049 31.7314 58.9017 32.3564C58.1984 32.9813 57.2446 33.3324 56.25 33.3324H51.8625C51.0877 35.2837 49.651 36.9733 47.7503 38.1685C45.8495 39.3636 43.5784 40.0054 41.25 40.0054C38.9216 40.0054 36.6505 39.3636 34.7497 38.1685C32.849 36.9733 31.4123 35.2837 30.6375 33.3324H3.75C2.75544 33.3324 1.80161 32.9813 1.09835 32.3564C0.395089 31.7314 0 30.8838 0 30C0 29.1162 0.395089 28.2686 1.09835 27.6436C1.80161 27.0187 2.75544 26.6676 3.75 26.6676H30.6375ZM18.75 46.6621C17.7554 46.6621 16.8016 47.0132 16.0984 47.6382C15.3951 48.2631 15 49.1107 15 49.9946C15 50.8784 15.3951 51.726 16.0984 52.3509C16.8016 52.9759 17.7554 53.327 18.75 53.327C19.7446 53.327 20.6984 52.9759 21.4016 52.3509C22.1049 51.726 22.5 50.8784 22.5 49.9946C22.5 49.1107 22.1049 48.2631 21.4016 47.6382C20.6984 47.0132 19.7446 46.6621 18.75 46.6621ZM8.1375 46.6621C8.91226 44.7109 10.349 43.0212 12.2497 41.8261C14.1505 40.6309 16.4216 39.9891 18.75 39.9891C21.0784 39.9891 23.3495 40.6309 25.2503 41.8261C27.151 43.0212 28.5877 44.7109 29.3625 46.6621H56.25C57.2446 46.6621 58.1984 47.0132 58.9017 47.6382C59.6049 48.2631 60 49.1107 60 49.9946C60 50.8784 59.6049 51.726 58.9017 52.3509C58.1984 52.9759 57.2446 53.327 56.25 53.327H29.3625C28.5877 55.2782 27.151 56.9679 25.2503 58.163C23.3495 59.3582 21.0784 60 18.75 60C16.4216 60 14.1505 59.3582 12.2497 58.163C10.349 56.9679 8.91226 55.2782 8.1375 53.327H3.75C2.75544 53.327 1.80161 52.9759 1.09835 52.3509C0.395089 51.726 0 50.8784 0 49.9946C0 49.1107 0.395089 48.2631 1.09835 47.6382C1.80161 47.0132 2.75544 46.6621 3.75 46.6621H8.1375Z" fill="white"/>
</svg>
