<svg width="20" height="17" viewBox="0 0 20 17" fill="none" xmlns="http://www.w3.org/2000/svg">
<path d="M14.7066 11.2887C13.4518 10.0298 11.813 9.26777 10.0179 9.26777C8.22279 9.26777 6.58399 10.0298 5.32698 11.2912C5.29227 11.3273 5.27102 11.3775 5.26769 11.4312C5.26436 11.485 5.27921 11.5382 5.30912 11.5796L6.11289 12.684C6.17764 12.7715 6.29151 12.7818 6.36742 12.7071C7.34088 11.7186 8.61798 11.1213 10.0179 11.1213C11.4178 11.1213 12.6949 11.7186 13.6683 12.7046C13.7443 12.7792 13.8581 12.7689 13.9229 12.6814L14.7266 11.577C14.7892 11.492 14.7802 11.3633 14.7066 11.2887ZM17.3277 7.68195C15.3473 5.77948 12.7998 4.63388 10.0179 4.63388C7.23594 4.63388 4.68843 5.77948 2.7058 7.68195C2.66953 7.71722 2.64682 7.7676 2.64264 7.8221C2.63846 7.87659 2.65313 7.93078 2.68347 7.97285L3.48724 9.07726C3.54976 9.16479 3.66362 9.17509 3.7373 9.103C5.44085 7.47085 7.63113 6.48744 10.0179 6.48744C12.4046 6.48744 14.5949 7.47085 16.2962 9.103C16.3721 9.17509 16.4838 9.16479 16.5463 9.07726L17.3501 7.97285C17.4126 7.88532 17.4037 7.75403 17.3277 7.68195ZM19.9333 4.10356C17.2228 1.53948 13.7532 0 9.97323 0C6.21783 0 2.77054 1.51888 0.0667457 4.05207C0.0481698 4.06928 0.0327677 4.0906 0.0214466 4.11478C0.0101256 4.13895 0.00311437 4.1655 0.00082576 4.19285C-0.00146285 4.22019 0.00101745 4.24779 0.00812063 4.27402C0.0152238 4.30024 0.0268062 4.32457 0.0421858 4.34555L0.845957 5.44996C0.908473 5.53492 1.02011 5.54779 1.09379 5.47828C3.52073 3.21025 6.60855 1.85355 9.97323 1.85355C13.3625 1.85355 16.4704 3.23085 18.904 5.52719C18.9799 5.59928 19.0916 5.5864 19.1541 5.49887L19.9579 4.39447C20.0226 4.30694 20.0114 4.17564 19.9333 4.10356ZM8.56663 15.3433C8.56663 15.7803 8.71718 16.1993 8.98515 16.5083C9.25313 16.8173 9.61658 16.9909 9.99556 16.9909C10.3745 16.9909 10.738 16.8173 11.006 16.5083C11.2739 16.1993 11.4245 15.7803 11.4245 15.3433C11.4245 14.9063 11.2739 14.4873 11.006 14.1783C10.738 13.8693 10.3745 13.6957 9.99556 13.6957C9.61658 13.6957 9.25313 13.8693 8.98515 14.1783C8.71718 14.4873 8.56663 14.9063 8.56663 15.3433Z" fill="#CA2790"/>
</svg>
