<svg width="60" height="60" viewBox="0 0 60 60" fill="none" xmlns="http://www.w3.org/2000/svg">
<path d="M13.3332 13.6665H39.9999V16.3332H13.3332V13.6665ZM13.3332 26.9998H26.8099V29.6665H13.3332V26.9998ZM38.9632 20.3332H13.3332V22.9998H36.2982L38.9632 20.3332ZM21.3216 48.4532C21.7699 48.9672 22.3389 49.3619 22.9774 49.6016C23.616 49.8413 24.3041 49.9186 24.9799 49.8265H37.9849C38.2943 49.8265 38.5911 49.7036 38.8099 49.4848C39.0287 49.266 39.1516 48.9693 39.1516 48.6598C39.1516 48.3504 39.0287 48.0537 38.8099 47.8349C38.5911 47.6161 38.2943 47.4932 37.9849 47.4932H24.9799C23.4616 47.4665 23.7316 46.1482 23.9449 45.7398C24.223 45.2606 24.4398 44.7482 24.5899 44.2148C24.6896 43.7857 24.6426 43.3355 24.4565 42.9361C24.2704 42.5368 23.9559 42.2113 23.5632 42.0115C22.9323 41.7273 22.2256 41.6576 21.5514 41.8132C20.8771 41.9689 20.2724 42.3412 19.8299 42.8732C19.2566 43.4648 18.4599 44.3698 17.6966 45.2498C18.1682 43.4015 18.7799 41.0298 19.3799 38.7165C19.5519 38.1894 19.5176 37.6167 19.2841 37.1138C19.0506 36.611 18.6352 36.2153 18.1216 36.0065C17.5528 35.8113 16.9311 35.8392 16.382 36.0845C15.833 36.3298 15.3974 36.7743 15.1632 37.3282C14.4432 38.7132 8.74325 48.2648 8.68658 48.3615C8.60801 48.493 8.55611 48.6388 8.53386 48.7904C8.5116 48.942 8.51942 49.0965 8.55688 49.245C8.59433 49.3936 8.66068 49.5334 8.75214 49.6563C8.8436 49.7792 8.95837 49.8829 9.08992 49.9615C9.35557 50.1202 9.67339 50.1669 9.97345 50.0912C10.2735 50.0156 10.5312 49.8238 10.6899 49.5582C10.9032 49.1998 15.4532 41.5782 16.8882 39.0332C15.8082 43.1998 14.6182 47.8365 14.5482 48.2532C14.4695 48.5595 14.4931 48.8832 14.6156 49.1748C14.7381 49.4665 14.9527 49.71 15.2266 49.8682C15.5317 50.0195 15.8784 50.0649 16.2122 49.9973C16.546 49.9297 16.8477 49.7529 17.0699 49.4948C17.2799 49.3048 17.6732 48.8532 18.6649 47.7015C19.5889 46.6148 20.5352 45.5474 21.5032 44.4998C21.8666 44.1165 22.0866 44.2865 21.8732 44.6632C21.4559 45.1905 21.1853 45.8187 21.0887 46.4842C20.9922 47.1497 21.0731 47.829 21.3232 48.4532H21.3216Z" fill="white"/>
<path d="M46.6666 36.1585V53.3335H6.66659V6.66683H46.6666V14.9885L48.8833 12.7718C49.2245 12.4353 49.5986 12.1338 49.9999 11.8718V5.00016C49.9999 4.55814 49.8243 4.13421 49.5118 3.82165C49.1992 3.50909 48.7753 3.3335 48.3333 3.3335H4.99992C4.55789 3.3335 4.13397 3.50909 3.82141 3.82165C3.50885 4.13421 3.33325 4.55814 3.33325 5.00016V55.0002C3.33325 55.4422 3.50885 55.8661 3.82141 56.1787C4.13397 56.4912 4.55789 56.6668 4.99992 56.6668H48.3333C48.7753 56.6668 49.1992 56.4912 49.5118 56.1787C49.8243 55.8661 49.9999 55.4422 49.9999 55.0002V35.7118C48.9776 36.2535 47.7954 36.4119 46.6666 36.1585Z" fill="white"/>
<path d="M56.88 19.7683L56.0083 18.8966C56.4538 18.3079 56.6794 17.5819 56.6459 16.8444C56.6124 16.1068 56.322 15.4042 55.825 14.8583C55.1799 14.2897 54.3362 13.999 53.4778 14.0496C52.6193 14.1002 51.8156 14.4879 51.2417 15.1283L30.3667 36L28.9717 41.2366C28.9496 41.3052 28.9469 41.3784 28.9639 41.4484C28.9809 41.5183 29.017 41.5822 29.068 41.633C29.1191 41.6837 29.1832 41.7193 29.2533 41.7358C29.3234 41.7524 29.3966 41.7492 29.465 41.7266L34.6833 40.315L54.17 20.8283L54.9933 21.6533C55.0508 21.7107 55.0965 21.7789 55.1276 21.854C55.1587 21.9291 55.1747 22.0095 55.1747 22.0908C55.1747 22.1721 55.1587 22.2525 55.1276 22.3276C55.0965 22.4027 55.0508 22.4709 54.9933 22.5283L46.7983 30.7233C46.5484 30.9735 46.408 31.3127 46.4082 31.6664C46.4083 32.0201 46.549 32.3592 46.7992 32.6091C47.0494 32.8591 47.3886 32.9994 47.7423 32.9993C48.0959 32.9991 48.435 32.8585 48.685 32.6083L56.88 24.4133C57.496 23.797 57.842 22.9613 57.842 22.09C57.842 21.2186 57.496 20.3829 56.88 19.7666V19.7683Z" fill="white"/>
</svg>
