<svg width="54" height="66" viewBox="0 0 54 66" fill="none" xmlns="http://www.w3.org/2000/svg">
<g clip-path="url(#clip0_405_2176)">
<path d="M28.6328 59.3684L7.22803 38.7316V42.9475C7.22803 44.0647 7.68717 45.1397 8.518 45.9197L25.5499 62.3406C27.2553 63.9848 30.032 63.9848 31.7374 62.3406L45.3149 49.2502C47.0203 47.606 47.0203 44.9289 45.3149 43.2847L28.6328 59.3684Z" fill="white"/>
<path d="M25.5499 51.8009C26.4026 52.623 27.5177 53.0446 28.6328 53.0446C29.7478 53.0446 30.8629 52.623 31.7156 51.8009L45.293 38.7105C46.9984 37.0663 46.9984 34.3892 45.293 32.745L28.2611 16.3241C27.4521 15.5441 26.337 15.1014 25.1783 15.1014H11.6008C9.19578 15.1014 7.22803 16.9986 7.22803 19.3173V32.4077C7.22803 33.5249 7.68717 34.6 8.518 35.3799L25.5499 51.8009ZM11.6008 19.3173H25.1783L42.2102 35.7383L28.6328 48.8287L11.6008 32.4077V19.3173Z" fill="white"/>
<path d="M16.5201 26.6952C18.0295 26.6952 19.2531 25.5155 19.2531 24.0602C19.2531 22.605 18.0295 21.4253 16.5201 21.4253C15.0107 21.4253 13.7871 22.605 13.7871 24.0602C13.7871 25.5155 15.0107 26.6952 16.5201 26.6952Z" fill="white"/>
</g>
<path d="M37.0879 9.43852L41.0038 5.66309" stroke="white" stroke-width="1.66667" stroke-linecap="round" stroke-linejoin="round"/>
<path d="M37.4142 6.29233C37.5944 6.29233 37.7405 6.15147 37.7405 5.97771C37.7405 5.80395 37.5944 5.66309 37.4142 5.66309C37.234 5.66309 37.0879 5.80395 37.0879 5.97771C37.0879 6.15147 37.234 6.29233 37.4142 6.29233Z" fill="white" stroke="white" stroke-width="1.66667" stroke-linecap="round" stroke-linejoin="round"/>
<path d="M40.6774 9.43857C40.8576 9.43857 41.0037 9.29771 41.0037 9.12395C41.0037 8.95019 40.8576 8.80933 40.6774 8.80933C40.4972 8.80933 40.3511 8.95019 40.3511 9.12395C40.3511 9.29771 40.4972 9.43857 40.6774 9.43857Z" fill="white" stroke="white" stroke-width="1.66667" stroke-linecap="round" stroke-linejoin="round"/>
<path d="M39.0457 13.214C42.2898 13.214 44.9196 10.6785 44.9196 7.55085C44.9196 4.42317 42.2898 1.8877 39.0457 1.8877C35.8017 1.8877 33.1719 4.42317 33.1719 7.55085C33.1719 10.6785 35.8017 13.214 39.0457 13.214Z" stroke="white" stroke-width="1.66667" stroke-linecap="round" stroke-linejoin="round"/>
<defs>
<clipPath id="clip0_405_2176">
<rect x="0.668945" y="15.1014" width="52.4733" height="50.5908" rx="10" fill="white"/>
</clipPath>
</defs>
</svg>
