<svg width="20" height="17" viewBox="0 0 20 17" fill="none" xmlns="http://www.w3.org/2000/svg">
<path d="M20 5.22329C20 1.99417 17.4055 0.000566364 17.405 0H2.59455C2.59455 0 0 1.997 0 5.22329C0 8.28958 4.20727 11.1378 9.49773 11.3086C9.43591 13.0892 9.19273 14.9435 8.49273 15.5858C7.50682 16.4908 4.05136 16.0258 4.05136 16.9909H15.95C15.95 16.0255 12.4932 16.4908 11.5073 15.5858C10.8073 14.9435 10.5641 13.0895 10.5023 11.3086C15.7914 11.1381 20 8.28958 20 5.22329ZM10 10.5497C5.54818 10.5497 1.88636 8.34622 1.41182 5.83241C1.3762 5.65002 1.35783 5.46649 1.35682 5.28276C1.35682 2.49342 3.59909 0.767706 3.59909 0.767706H16.4005C16.4009 0.768555 18.6032 2.46368 18.64 5.21423C18.6405 5.23688 18.6432 5.25925 18.6432 5.28276C18.6432 8.01631 14.7736 10.5497 10 10.5497Z" fill="#CA2790"/>
</svg>
