<svg width="60" height="60" viewBox="0 0 60 60" fill="none" xmlns="http://www.w3.org/2000/svg">
<path d="M11.3706 39.1177C11.7678 39.0042 12.1942 39.0596 12.5493 39.2708C15.5355 41.0467 18.9466 41.9974 22.5005 41.9974C33.2693 41.9974 41.9993 33.2675 41.9993 22.4986C41.9993 11.7297 33.2693 2.99982 22.5005 2.99982C11.7316 2.99982 3.00165 11.7297 3.00165 22.4986C3.00165 26.0525 3.95242 29.4635 5.72831 32.4498C5.93947 32.8048 5.99483 33.2313 5.88134 33.6285L3.68564 41.3134L11.3706 39.1177ZM44.0352 15.9634C53.4251 18.8076 59.9982 27.5032 59.9982 37.4977C59.9982 41.3713 59.0166 45.1045 57.1773 48.4132L59.9404 58.0844C60.2637 59.2158 59.2176 60.2619 58.0862 59.9386L48.415 57.1754C45.1063 59.0147 41.3732 59.9963 37.4995 59.9963C27.5146 59.9963 18.8142 53.4347 15.9652 44.0331C14.4441 43.5722 12.977 42.9502 11.5849 42.1763L1.9138 44.9395C0.782344 45.2628 -0.263726 44.2167 0.0595481 43.0853L2.82273 33.4141C0.983427 30.1054 0.00183762 26.3723 0.00183762 22.4986C0.00183762 10.073 10.0748 0 22.5005 0C32.6532 0 41.2353 6.72496 44.0352 15.9634ZM44.7882 19.4054C44.9272 20.4166 44.9991 21.4492 44.9991 22.4986C44.9991 34.9243 34.9261 44.9972 22.5005 44.9972C21.4574 44.9972 20.4245 44.9261 19.4074 44.7861C22.333 52.0546 29.4331 56.9965 37.4995 56.9965C41.0534 56.9965 44.4645 56.0457 47.4507 54.2698C47.8058 54.0587 48.2322 54.0033 48.6294 54.1168L56.3144 56.3125L54.1187 48.6276C54.0052 48.2304 54.0605 47.8039 54.2717 47.4489C56.0476 44.4626 56.9983 41.0516 56.9983 37.4977C56.9983 29.4242 52.0485 22.3276 44.7882 19.4054Z" fill="white"/>
</svg>
