<svg width="54" height="52" viewBox="0 0 54 52" fill="none" xmlns="http://www.w3.org/2000/svg">
<path d="M38.25 41.1667H42.75V23.8333H29.25V41.1667H33.75V28.1667H38.25V41.1667ZM6.75 41.1667V8.66667C6.75 8.09203 6.98705 7.54093 7.40901 7.1346C7.83097 6.72827 8.40326 6.5 9 6.5H40.5C41.0967 6.5 41.669 6.72827 42.091 7.1346C42.5129 7.54093 42.75 8.09203 42.75 8.66667V19.5H47.25V41.1667H49.5V45.5H4.5V41.1667H6.75ZM15.75 23.8333V28.1667H20.25V23.8333H15.75ZM15.75 32.5V36.8333H20.25V32.5H15.75ZM15.75 15.1667V19.5H20.25V15.1667H15.75Z" fill="white"/>
</svg>
