<svg width="46" height="46" viewBox="0 0 46 46" fill="none" xmlns="http://www.w3.org/2000/svg">
<path d="M39.1937 39.1943H32.3779V28.5203C32.3779 25.9751 32.3325 22.6985 28.8331 22.6985C25.2832 22.6985 24.74 25.4718 24.74 28.3351V39.1936H17.9244V17.2437H24.4674V20.2434H24.559C25.2138 19.1238 26.16 18.2027 27.2969 17.5783C28.4337 16.9539 29.7187 16.6495 31.0148 16.6976C37.9229 16.6976 39.1965 21.2416 39.1965 27.1529L39.1937 39.1943ZM10.2338 14.2435C8.04933 14.2438 6.27815 12.4732 6.27779 10.2887C6.27743 8.10425 8.04789 6.33307 10.2324 6.33271C12.4168 6.33217 14.188 8.10281 14.1884 10.2873C14.1885 11.3363 13.772 12.3424 13.0304 13.0844C12.2888 13.8263 11.2828 14.2432 10.2338 14.2435ZM13.6417 39.1945H6.81883V17.2437H13.6416V39.1943L13.6417 39.1945ZM42.5916 0.00285964H3.39399C1.54141 -0.0179841 0.0221523 1.46605 -0.000488281 3.31863V42.6797C0.0214336 44.5332 1.54051 46.0187 3.39381 45.9993H42.5916C44.4488 46.0223 45.9738 44.5368 45.9995 42.6797V3.31558C45.9731 1.45941 44.4479 -0.0244529 42.5916 -0.000195051" fill="#0A66C2"/>
</svg>
