<svg width="24" height="21" viewBox="0 0 24 21" fill="none" xmlns="http://www.w3.org/2000/svg">
<path d="M12 11.4394V18.9909M13.25 18.9909H12M10.75 18.9909H12M12 11.4394C7 11.4394 5.75 8.29324 5.75 6.7197V2.94394L8.875 4.83182L12 2L15.125 4.83182L18.25 2.94394V6.7197C18.25 8.29324 17 11.4394 12 11.4394ZM13.25 18.9909C20.25 18.9909 22 14.5855 22 12.3833C15 12.3833 13.25 16.7887 13.25 18.9909ZM10.75 18.9909C3.75 18.9909 2 14.5855 2 12.3833C9 12.3833 10.75 16.7887 10.75 18.9909Z" stroke="#CA2790" stroke-width="3" stroke-linecap="round" stroke-linejoin="round"/>
</svg>
