<svg width="50" height="50" viewBox="0 0 50 50" fill="none" xmlns="http://www.w3.org/2000/svg">
<path d="M25 0C11.215 0 0 11.215 0 25V35.3575C0 37.9175 2.2425 40 5 40H7.5C8.16304 40 8.79893 39.7366 9.26777 39.2678C9.73661 38.7989 10 38.163 10 37.5V24.6425C10 23.9795 9.73661 23.3436 9.26777 22.8747C8.79893 22.4059 8.16304 22.1425 7.5 22.1425H5.23C6.62 12.4675 14.945 5 25 5C35.055 5 43.38 12.4675 44.77 22.1425H42.5C41.837 22.1425 41.2011 22.4059 40.7322 22.8747C40.2634 23.3436 40 23.9795 40 24.6425V40C40 42.7575 37.7575 45 35 45H30V42.5H20V50H35C40.515 50 45 45.515 45 40C47.7575 40 50 37.9175 50 35.3575V25C50 11.215 38.785 0 25 0Z" fill="white"/>
</svg>
