<svg width="46" height="46" viewBox="0 0 46 46" fill="none" xmlns="http://www.w3.org/2000/svg">
<path d="M0 23.0004C0 32.4185 5.66339 40.5095 13.7675 44.0667C13.7028 42.4607 13.756 40.5326 14.1678 38.7852C14.61 36.9181 17.1273 26.2523 17.1273 26.2523C17.1273 26.2523 16.3925 24.7838 16.3925 22.6133C16.3925 19.2048 18.368 16.6592 20.8283 16.6592C22.9204 16.6592 23.9311 18.2306 23.9311 20.1122C23.9311 22.2153 22.5898 25.3611 21.9 28.2747C21.3237 30.7145 23.1233 32.7046 25.5302 32.7046C29.888 32.7046 32.823 27.1075 32.823 20.4759C32.823 15.435 29.4278 11.6619 23.2525 11.6619C16.2756 11.6619 11.9291 16.8649 11.9291 22.6767C11.9291 24.6806 12.5199 26.0937 13.4453 27.188C13.8708 27.6906 13.9299 27.8927 13.7759 28.4699C13.6656 28.893 13.4122 29.9119 13.3073 30.3156C13.1542 30.8982 12.6822 31.1064 12.1557 30.8913C8.94215 29.5794 7.44553 26.0603 7.44553 22.1043C7.44553 15.5706 12.9558 7.73627 23.8837 7.73627C32.665 7.73627 38.4447 14.0907 38.4447 20.9118C38.4447 29.9345 33.4285 36.6751 26.0344 36.6751C23.5513 36.6751 21.2155 35.3329 20.4154 33.8082C20.4154 33.8082 19.0801 39.1075 18.7973 40.1309C18.3096 41.9042 17.3551 43.6766 16.4824 45.0581C18.5987 45.6838 20.794 46.0015 23.0009 46.0013C35.7019 46.0013 46.0002 35.7035 46.0002 23.0004C46.0002 10.2977 35.7019 0 23.0009 0C10.2986 0 0 10.2977 0 23.0004Z" fill="#CB1F27"/>
</svg>
