<svg width="16" height="15" viewBox="0 0 16 15" fill="none" xmlns="http://www.w3.org/2000/svg">
<path d="M7.39052 1.61987C7.60409 1.10067 8.41234 1.10067 8.62658 1.61987L10.0081 5.14723C10.0563 5.26213 10.1412 5.36086 10.2515 5.43039C10.3619 5.49991 10.4925 5.53695 10.6262 5.53663H14.0213C14.6487 5.53663 14.9223 6.25637 14.4291 6.60886L12.0131 8.61245C11.9048 8.68914 11.8257 8.79545 11.7871 8.91614C11.7485 9.03682 11.7524 9.16568 11.7982 9.28421L12.6805 12.731C12.8954 13.2846 12.1999 13.7602 11.674 13.4194L8.39231 11.5C8.27993 11.4272 8.14591 11.3882 8.00855 11.3882C7.87119 11.3882 7.73717 11.4272 7.62478 11.5L4.34309 13.4194C3.81783 13.7602 3.12171 13.284 3.33662 12.731L4.21895 9.28421C4.26472 9.16568 4.26857 9.03682 4.22996 8.91614C4.19135 8.79545 4.11226 8.68914 4.00404 8.61245L1.58798 6.60886C1.09409 6.25637 1.36907 5.53663 1.99511 5.53663H5.39026C5.52394 5.53704 5.65461 5.50003 5.76497 5.43049C5.87532 5.36096 5.96018 5.26218 6.0083 5.14723L7.38985 1.61987H7.39052Z" fill="#CA2790" stroke="#CA2790" stroke-width="1.66667" stroke-linecap="round" stroke-linejoin="round"/>
</svg>
