<svg width="64" height="49" viewBox="0 0 64 49" fill="none" xmlns="http://www.w3.org/2000/svg">
<path d="M11.4997 48.81V45.5597C11.4997 44.3132 10.7411 43.501 9.49589 43.501C8.8419 43.501 8.14214 43.7181 7.65426 44.4165C7.27495 43.8201 6.73868 43.501 5.9212 43.501C5.61726 43.4878 5.3148 43.5502 5.0409 43.6826C4.76699 43.815 4.53017 44.0133 4.35164 44.2596V43.6056H3.32227V48.8061H4.35164V45.8305C4.35164 44.9149 4.89314 44.4767 5.65176 44.4767C6.41038 44.4767 6.84332 44.9646 6.84332 45.8305V48.81H7.87269V45.8305C7.87269 44.9149 8.4142 44.4767 9.17282 44.4767C9.93144 44.4767 10.3644 44.9646 10.3644 45.8305V48.81H11.4997ZM28.4013 43.6632H26.5047V42.0936H25.478V43.6632H24.395V44.5787H25.478V47.022C25.478 48.2136 25.9109 48.9186 27.211 48.9186C27.7036 48.9083 28.1862 48.7781 28.6171 48.5393L28.2914 47.6237C27.9992 47.8064 27.6603 47.9004 27.3157 47.8944C26.7742 47.8944 26.5034 47.5688 26.5034 47.0273V44.5369H28.4V43.6697L28.4013 43.6632ZM38.0437 43.501C37.7633 43.4947 37.4861 43.5613 37.2392 43.6943C36.9922 43.8273 36.7841 44.0221 36.635 44.2596V43.6056H35.6056V48.8061H36.635V45.8854C36.635 45.0182 37.0679 44.4767 37.7729 44.4767C38.0108 44.4864 38.2469 44.5228 38.4766 44.5853L38.8023 43.6095C38.5539 43.5469 38.2996 43.5105 38.0437 43.501ZM23.4716 44.0425C22.9301 43.6632 22.1714 43.501 21.3592 43.501C20.0591 43.501 19.2468 44.0974 19.2468 45.1268C19.2468 45.994 19.8432 46.4805 20.9799 46.644L21.5214 46.6976C22.1178 46.8062 22.4971 47.0233 22.4971 47.2941C22.4971 47.6734 22.0642 47.9481 21.2506 47.9481C20.6294 47.9608 20.021 47.7707 19.5176 47.4066L18.9761 48.2188C19.7347 48.7603 20.6555 48.8728 21.1996 48.8728C22.7169 48.8728 23.5291 48.1691 23.5291 47.1934C23.5291 46.2778 22.8751 45.8396 21.7411 45.6761L21.1996 45.6225C20.7117 45.5689 20.284 45.4054 20.284 45.081C20.284 44.7017 20.717 44.427 21.3134 44.427C21.9674 44.427 22.6135 44.6978 22.9392 44.8599L23.4716 44.0425ZM39.1816 46.2098C39.1816 47.7793 40.211 48.9186 41.8904 48.9186C42.649 48.9186 43.1905 48.7564 43.732 48.3221L43.1905 47.5099C42.8071 47.8204 42.3301 47.9923 41.8368 47.9978C40.9212 47.9978 40.211 47.2941 40.211 46.2647C40.211 45.2353 40.912 44.5369 41.8368 44.5369C42.3301 44.5423 42.8071 44.7143 43.1905 45.0248L43.732 44.2125C43.1905 43.7796 42.649 43.6161 41.8904 43.6161C40.2646 43.5075 39.1816 44.6454 39.1816 46.2163V46.2098ZM31.9224 43.501C30.4051 43.501 29.3757 44.584 29.3757 46.2098C29.3757 47.8356 30.4587 48.9186 32.0296 48.9186C32.7938 48.9347 33.5401 48.6861 34.142 48.2149L33.6005 47.4563C33.1652 47.7936 32.6337 47.9832 32.0832 47.9978C31.3795 47.9978 30.6209 47.5648 30.5137 46.644H34.3604V46.2111C34.3604 44.5853 33.3847 43.5023 31.9224 43.5023V43.501ZM31.8687 44.4767C32.6273 44.4767 33.1688 44.9646 33.2225 45.7768H30.4064C30.5686 45.0182 31.0604 44.4767 31.8687 44.4767ZM17.8381 46.2098V43.6095H16.8088V44.2635C16.4294 43.7756 15.8932 43.5049 15.1293 43.5049C13.667 43.5049 12.5827 44.6428 12.5827 46.2137C12.5827 47.7846 13.6657 48.9225 15.1293 48.9225C15.8879 48.9225 16.4294 48.6518 16.8088 48.1639V48.8179H17.8381V46.2098ZM13.667 46.2098C13.667 45.234 14.2634 44.4767 15.2928 44.4767C16.2686 44.4767 16.8624 45.2353 16.8624 46.2098C16.8624 47.2391 16.2084 47.9428 15.2928 47.9428C14.2634 47.9965 13.667 47.1842 13.667 46.2098ZM53.7014 43.501C53.421 43.4947 53.1438 43.5613 52.8969 43.6943C52.65 43.8273 52.4418 44.0221 52.2927 44.2596V43.6056H51.2633V48.8061H52.2914V45.8854C52.2914 45.0182 52.7243 44.4767 53.4293 44.4767C53.6672 44.4864 53.9033 44.5228 54.133 44.5853L54.4587 43.6095C54.2103 43.5469 53.956 43.5105 53.7001 43.501H53.7014ZM49.6924 46.2098V43.6095H48.6631V44.2635C48.2838 43.7756 47.7475 43.5049 46.9836 43.5049C45.5213 43.5049 44.437 44.6428 44.437 46.2137C44.437 47.7846 45.52 48.9225 46.9836 48.9225C47.7423 48.9225 48.2838 48.6518 48.6631 48.1639V48.8179H49.6924V46.2098ZM45.5213 46.2098C45.5213 45.234 46.1178 44.4767 47.1471 44.4767C48.1229 44.4767 48.7167 45.2353 48.7167 46.2098C48.7167 47.2391 48.0627 47.9428 47.1471 47.9428C46.1178 47.9965 45.5213 47.1842 45.5213 46.2098ZM60.1484 46.2098V41.5508H59.119V44.2596C58.7397 43.7717 58.2034 43.501 57.4396 43.501C55.9772 43.501 54.8929 44.6389 54.8929 46.2098C54.8929 47.7806 55.9759 48.9186 57.4396 48.9186C58.1982 48.9186 58.7397 48.6478 59.119 48.16V48.8139H60.1484V46.2098ZM55.9772 46.2098C55.9772 45.234 56.5737 44.4767 57.6031 44.4767C58.5788 44.4767 59.1726 45.2353 59.1726 46.2098C59.1726 47.2391 58.5186 47.9428 57.6031 47.9428C56.5724 47.9978 55.9759 47.1855 55.9759 46.2098H55.9772Z" fill="black"/>
<path d="M22.2793 4.17188H41.0775V34.8333H22.2793V4.17188Z" fill="#FF5F00"/>
<path d="M24.177 19.5019C24.1777 16.5522 24.8456 13.6409 26.1309 10.986C27.4161 8.33106 29.2853 6.00129 31.5985 4.17113C28.7217 1.90928 25.2665 0.502491 21.628 0.111589C17.9894 -0.279312 14.3143 0.361444 11.0227 1.96061C7.73109 3.55978 4.95587 6.05282 3.01425 9.15476C1.07263 12.2567 0.0429687 15.8424 0.0429688 19.5019C0.0429688 23.1614 1.07263 26.747 3.01425 29.849C4.95587 32.9509 7.73109 35.4439 11.0227 37.0431C14.3143 38.6423 17.9894 39.283 21.628 38.8921C25.2665 38.5012 28.7217 37.0944 31.5985 34.8326C29.2853 33.0024 27.4161 30.6726 26.1309 28.0177C24.8456 25.3628 24.1777 22.4515 24.177 19.5019Z" fill="#EB001B"/>
<path d="M63.1823 19.5022C63.1849 23.159 62.1583 26.7428 60.2199 29.8436C58.2814 32.9444 55.5094 35.437 52.2209 37.0364C48.9324 38.6358 45.2601 39.2773 41.6241 38.8876C37.988 38.498 34.5351 37.0928 31.6602 34.8329C33.9739 33.0032 35.8435 30.6736 37.1288 28.0185C38.4141 25.3635 39.0818 22.452 39.0818 19.5022C39.0818 16.5524 38.4141 13.6409 37.1288 10.9859C35.8435 8.33084 33.9739 6.00118 31.6602 4.17149C34.5351 1.91159 37.988 0.506454 41.6241 0.116791C45.2601 -0.272872 48.9324 0.368671 52.2209 1.96804C55.5094 3.56742 58.2814 6.06004 60.2199 9.16083C62.1583 12.2616 63.1849 15.8454 63.1823 19.5022Z" fill="#F79E1B"/>
</svg>
