<svg width="16" height="15" viewBox="0 0 16 15" fill="none" xmlns="http://www.w3.org/2000/svg">
<path d="M7.46279 1.61987C7.67636 1.10067 8.4846 1.10067 8.69884 1.61987L10.0804 5.14723C10.1286 5.26213 10.2135 5.36086 10.3238 5.43039C10.4342 5.49991 10.5648 5.53695 10.6984 5.53663H14.0936C14.721 5.53663 14.9946 6.25637 14.5014 6.60886L12.0853 8.61246C11.9771 8.68914 11.898 8.79545 11.8594 8.91614C11.8208 9.03682 11.8246 9.16568 11.8704 9.28422L12.7527 12.731C12.9677 13.2846 12.2722 13.7602 11.7463 13.4194L8.46458 11.5C8.3522 11.4272 8.21818 11.3882 8.08081 11.3882C7.94345 11.3882 7.80943 11.4272 7.69705 11.5L4.41535 13.4194C3.89009 13.7602 3.19397 13.284 3.40888 12.731L4.29121 9.28422C4.33698 9.16568 4.34084 9.03682 4.30223 8.91614C4.26362 8.79545 4.18453 8.68914 4.0763 8.61246L1.66025 6.60886C1.16636 6.25637 1.44133 5.53663 2.06737 5.53663H5.46253C5.59621 5.53704 5.72687 5.50003 5.83723 5.43049C5.94759 5.36096 6.03244 5.26218 6.08056 5.14723L7.46212 1.61987H7.46279Z" stroke="#CA2790" stroke-width="1.66667" stroke-linecap="round" stroke-linejoin="round"/>
</svg>
